<svg width="31" height="32" viewBox="0 0 31 32" fill="none" xmlns="http://www.w3.org/2000/svg">
<path d="M23.2499 17.2891H16.7916V23.7475C16.7916 24.09 16.6555 24.4186 16.4133 24.6608C16.171 24.9031 15.8425 25.0391 15.4999 25.0391C15.1573 25.0391 14.8288 24.9031 14.5866 24.6608C14.3443 24.4186 14.2083 24.09 14.2083 23.7475V17.2891H7.74992C7.40735 17.2891 7.07881 17.1531 6.83657 16.9108C6.59434 16.6686 6.45825 16.34 6.45825 15.9975C6.45825 15.6549 6.59434 15.3264 6.83657 15.0841C7.07881 14.8419 7.40735 14.7058 7.74992 14.7058H14.2083V8.24748C14.2083 7.90491 14.3443 7.57637 14.5866 7.33413C14.8288 7.0919 15.1573 6.95581 15.4999 6.95581C15.8425 6.95581 16.171 7.0919 16.4133 7.33413C16.6555 7.57637 16.7916 7.90491 16.7916 8.24748V14.7058H23.2499C23.5925 14.7058 23.921 14.8419 24.1633 15.0841C24.4055 15.3264 24.5416 15.6549 24.5416 15.9975C24.5416 16.34 24.4055 16.6686 24.1633 16.9108C23.921 17.1531 23.5925 17.2891 23.2499 17.2891Z" fill="white"/>
</svg>
